Normalized EMG Linear Envelopes
nRows=262
nColumns=4

endheader
time	 med_gas_r	  soleus_r	 tib_ant_r	
14.4042	  0.030198	  0.147683	  0.048937	
14.4375	  0.028982	  0.154612	  0.047598	
14.4708	  0.028032	  0.161493	  0.046025	
14.504	  0.027627	  0.168063	  0.044178	
14.5373	  0.027772	  0.173752	  0.042178	
14.5706	  0.028218	  0.178093	  0.040194	
14.6038	  0.028642	  0.181090	  0.038357	
14.6371	  0.028884	  0.183230	  0.036749	
14.6704	  0.029069	  0.185150	  0.035432	
14.7036	  0.029514	  0.187305	  0.034450	
14.7369	  0.030477	  0.189853	  0.033817	
14.7702	  0.031916	  0.192683	  0.033504	
14.8034	  0.033437	  0.195388	  0.033457	
14.8367	  0.034469	  0.197261	  0.033611	
14.87	  0.034580	  0.197483	  0.033881	
14.9032	  0.033705	  0.195580	  0.034168	
14.9365	  0.032143	  0.191805	  0.034394	
14.9698	  0.030321	  0.187100	  0.034549	
15.003	  0.028546	  0.182598	  0.034700	
15.0363	  0.026907	  0.179025	  0.034963	
15.0696	  0.025390	  0.176428	  0.035442	
15.1028	  0.024032	  0.174360	  0.036215	
15.1361	  0.022996	  0.172305	  0.037334	
15.1694	  0.022504	  0.170005	  0.038807	
15.2026	  0.022693	  0.167543	  0.040550	
15.2359	  0.023507	  0.165204	  0.042346	
15.2692	  0.024685	  0.163308	  0.043894	
15.3024	  0.025860	  0.162129	  0.044951	
15.3357	  0.026727	  0.161941	  0.045431	
15.369	  0.027183	  0.163081	  0.045386	
15.4022	  0.027341	  0.165888	  0.044905	
15.4355	  0.027412	  0.170493	  0.044069	
15.4687	  0.027561	  0.176614	  0.042984	
15.502	  0.027836	  0.183514	  0.041818	
15.5353	  0.028210	  0.190175	  0.040770	
15.5685	  0.028646	  0.195594	  0.040006	
15.6018	  0.029110	  0.199111	  0.039661	
15.6351	  0.029531	  0.200571	  0.039872	
15.6683	  0.029791	  0.200172	  0.040736	
15.7016	  0.029780	  0.198100	  0.042186	
15.7349	  0.029485	  0.194329	  0.043903	
15.7681	  0.029039	  0.188802	  0.045415	
15.8014	  0.028675	  0.181783	  0.046331	
15.8347	  0.028586	  0.173941	  0.046527	
15.8679	  0.028781	  0.166082	  0.046122	
15.9012	  0.029048	  0.158827	  0.045318	
15.9345	  0.029091	  0.152566	  0.044285	
15.9677	  0.028740	  0.147658	  0.043163	
16.001	  0.028089	  0.144618	  0.042117	
16.0343	  0.027459	  0.144049	  0.041325	
16.0675	  0.027211	  0.146265	  0.040906	
16.1008	  0.027532	  0.150878	  0.040876	
16.1341	  0.028320	  0.156722	  0.041159	
16.1673	  0.029239	  0.162351	  0.041627	
16.2006	  0.029922	  0.166830	  0.042126	
16.2339	  0.030191	  0.170225	  0.042498	
16.2671	  0.030132	  0.173424	  0.042627	
16.3004	  0.029977	  0.177385	  0.042492	
16.3337	  0.029900	  0.182369	  0.042166	
16.3669	  0.029906	  0.187637	  0.041783	
16.4002	  0.029904	  0.191748	  0.041472	
16.4335	  0.029858	  0.193306	  0.041327	
16.4667	  0.029873	  0.191763	  0.041378	
16.5	  0.030152	  0.187836	  0.041588	
16.5333	  0.030885	  0.183228	  0.041869	
16.5665	  0.032153	  0.179810	  0.042128	
16.5998	  0.033886	  0.178817	  0.042307	
16.6331	  0.035887	  0.180610	  0.042398	
16.6663	  0.037917	  0.185016	  0.042413	
16.6996	  0.039820	  0.191745	  0.042347	
16.7329	  0.041598	  0.200393	  0.042162	
16.7661	  0.043340	  0.210071	  0.041813	
16.7994	  0.045055	  0.219218	  0.041338	
16.8327	  0.046549	  0.226109	  0.040926	
16.8659	  0.047511	  0.229842	  0.040904	
16.8992	  0.047754	  0.231008	  0.041612	
16.9325	  0.047416	  0.231371	  0.043263	
16.9657	  0.046911	  0.232702	  0.045920	
16.999	  0.046666	  0.235613	  0.049584	
17.0323	  0.046844	  0.239201	  0.054224	
17.0655	  0.047252	  0.241657	  0.059619	
17.0988	  0.047483	  0.241343	  0.065094	
17.1321	  0.047184	  0.237589	  0.069504	
17.1653	  0.046297	  0.230797	  0.071677	
17.1986	  0.045111	  0.222029	  0.071141	
17.2319	  0.044101	  0.212535	  0.068573	
17.2651	  0.043664	  0.203563	  0.065529	
17.2984	  0.043946	  0.196372	  0.063610	
17.3317	  0.044890	  0.192122	  0.063583	
17.3649	  0.046409	  0.191512	  0.065030	
17.3982	  0.048456	  0.194387	  0.066736	
17.4315	  0.050957	  0.199711	  0.067549	
17.4647	  0.053725	  0.206090	  0.067166	
17.498	  0.056514	  0.212483	  0.066289	
17.5312	  0.059133	  0.218560	  0.066098	
17.5645	  0.061466	  0.224469	  0.067420	
17.5978	  0.063370	  0.230396	  0.070184	
17.631	  0.064618	  0.236394	  0.073479	
17.6643	  0.065020	  0.242570	  0.076160	
17.6976	  0.064616	  0.249265	  0.077599	
17.7308	  0.063712	  0.256893	  0.078054	
17.7641	  0.062694	  0.265505	  0.078390	
17.7974	  0.061792	  0.274400	  0.079351	
17.8306	  0.061017	  0.282114	  0.080973	
17.8639	  0.060286	  0.286846	  0.082603	
17.8972	  0.059576	  0.287149	  0.083506	
17.9304	  0.058971	  0.282521	  0.083496	
17.9637	  0.058641	  0.273603	  0.083001	
17.997	  0.058833	  0.261958	  0.082517	
18.0302	  0.059824	  0.249627	  0.082022	
18.0635	  0.061780	  0.238644	  0.080998	
18.0968	  0.064580	  0.230526	  0.079063	
18.13	  0.067774	  0.225877	  0.076579	
18.1633	  0.070777	  0.224323	  0.074567	
18.1966	  0.073125	  0.224874	  0.073968	
18.2298	  0.074609	  0.226451	  0.074935	
18.2631	  0.075221	  0.228258	  0.076807	
18.2964	  0.075046	  0.229853	  0.078775	
18.3296	  0.074215	  0.231058	  0.080564	
18.3629	  0.072908	  0.231886	  0.082508	
18.3962	  0.071317	  0.232487	  0.085003	
18.4294	  0.069582	  0.233059	  0.087883	
18.4627	  0.067800	  0.233761	  0.090286	
18.496	  0.066135	  0.234708	  0.091133	
18.5292	  0.064893	  0.236009	  0.089849	
18.5625	  0.064412	  0.237712	  0.086812	
18.5958	  0.064870	  0.239662	  0.083198	
18.629	  0.066189	  0.241519	  0.080311	
18.6623	  0.068111	  0.243034	  0.078847	
18.6956	  0.070318	  0.244352	  0.078584	
18.7288	  0.072476	  0.245909	  0.078705	
18.7621	  0.074234	  0.247908	  0.078498	
18.7954	  0.075281	  0.249873	  0.077913	
18.8286	  0.075460	  0.250827	  0.077537	
18.8619	  0.074859	  0.250099	  0.078031	
18.8952	  0.073793	  0.248041	  0.079531	
18.9284	  0.072682	  0.245939	  0.081511	
18.9617	  0.071878	  0.245077	  0.083241	
18.995	  0.071530	  0.245758	  0.084432	
19.0282	  0.071547	  0.247130	  0.085531	
19.0615	  0.071687	  0.247951	  0.087364	
19.0948	  0.071706	  0.247542	  0.090367	
19.128	  0.071500	  0.246021	  0.093993	
19.1613	  0.071157	  0.243682	  0.096783	
19.1946	  0.070883	  0.240284	  0.097150	
19.2278	  0.070835	  0.235100	  0.094375	
19.2611	  0.070984	  0.227773	  0.089117	
19.2944	  0.071135	  0.219122	  0.083096	
19.3276	  0.071081	  0.211104	  0.078201	
19.3609	  0.070772	  0.205895	  0.075638	
19.3942	  0.070354	  0.204791	  0.075530	
19.4274	  0.070092	  0.207669	  0.077035	
19.4607	  0.070230	  0.213260	  0.078847	
19.494	  0.070897	  0.219924	  0.079907	
19.5272	  0.072072	  0.226420	  0.079997	
19.5605	  0.073628	  0.232171	  0.079807	
19.5937	  0.075373	  0.236945	  0.080343	
19.627	  0.077039	  0.240317	  0.082096	
19.6603	  0.078299	  0.241531	  0.084624	
19.6935	  0.078869	  0.239964	  0.086919	
19.7268	  0.078663	  0.235768	  0.088272	
19.7601	  0.077837	  0.229995	  0.088874	
19.7933	  0.076646	  0.224027	  0.089662	
19.8266	  0.075256	  0.218888	  0.091560	
19.8599	  0.073725	  0.215043	  0.094768	
19.8931	  0.072148	  0.212734	  0.098595	
19.9264	  0.070776	  0.212313	  0.101864	
19.9597	  0.069904	  0.214142	  0.103545	
19.9929	  0.069642	  0.218159	  0.103254	
20.0262	  0.069819	  0.223637	  0.101399	
20.0595	  0.070138	  0.229466	  0.098965	
20.0927	  0.070405	  0.234752	  0.097040	
20.126	  0.070611	  0.239228	  0.096327	
20.1593	  0.070831	  0.243223	  0.096857	
20.1925	  0.071147	  0.247334	  0.098084	
20.2258	  0.071684	  0.252094	  0.099319	
20.2591	  0.072658	  0.257733	  0.100234	
20.2923	  0.074296	  0.263990	  0.101042	
20.3256	  0.076649	  0.270007	  0.102196	
20.3589	  0.079435	  0.274469	  0.103819	
20.3921	  0.082038	  0.276138	  0.105389	
20.4254	  0.083709	  0.274611	  0.105960	
20.4587	  0.083884	  0.270752	  0.104766	
20.4919	  0.082467	  0.266268	  0.101699	
20.5252	  0.079893	  0.262595	  0.097357	
20.5585	  0.076927	  0.259988	  0.092738	
20.5917	  0.074305	  0.257658	  0.088869	
20.625	  0.072424	  0.254835	  0.086516	
20.6583	  0.071239	  0.251749	  0.085924	
20.6915	  0.070414	  0.249571	  0.086731	
20.7248	  0.069604	  0.249360	  0.088186	
20.7581	  0.068663	  0.250980	  0.089637	
20.7913	  0.067654	  0.252985	  0.090890	
20.8246	  0.066746	  0.253635	  0.092146	
20.8579	  0.066103	  0.252193	  0.093667	
20.8911	  0.065825	  0.249416	  0.095531	
20.9244	  0.065885	  0.246864	  0.097582	
20.9577	  0.066096	  0.245640	  0.099423	
20.9909	  0.066209	  0.245600	  0.100429	
21.0242	  0.066139	  0.245557	  0.099991	
21.0575	  0.066086	  0.244206	  0.097973	
21.0907	  0.066371	  0.240988	  0.094996	
21.124	  0.067102	  0.236388	  0.092189	
21.1573	  0.068048	  0.231670	  0.090587	
21.1905	  0.068865	  0.228407	  0.090691	
21.2238	  0.069433	  0.228012	  0.092415	
21.2571	  0.069944	  0.231255	  0.095220	
21.2903	  0.070681	  0.237784	  0.098213	
21.3236	  0.071744	  0.246012	  0.100389	
21.3569	  0.072995	  0.253690	  0.101127	
21.3901	  0.074200	  0.258941	  0.100676	
21.4234	  0.075181	  0.261018	  0.100060	
21.4567	  0.075840	  0.260224	  0.100300	
21.4899	  0.076097	  0.257224	  0.101581	
21.5232	  0.075870	  0.252495	  0.103152	
21.5565	  0.075104	  0.246401	  0.104075	
21.5897	  0.073830	  0.239650	  0.104115	
21.623	  0.072207	  0.233515	  0.103934	
21.6562	  0.070573	  0.229503	  0.104425	
21.6895	  0.069416	  0.228682	  0.105834	
21.7228	  0.069190	  0.231093	  0.107446	
21.756	  0.070017	  0.235592	  0.108057	
21.7893	  0.071549	  0.240273	  0.106767	
21.8226	  0.073167	  0.243337	  0.103468	
21.8558	  0.074379	  0.243876	  0.098765	
21.8891	  0.075061	  0.241956	  0.093564	
21.9224	  0.075346	  0.238001	  0.088659	
21.9556	  0.075340	  0.232173	  0.084524	
21.9889	  0.074981	  0.224383	  0.081299	
22.0222	  0.074147	  0.214802	  0.078926	
22.0554	  0.072842	  0.204245	  0.077323	
22.0887	  0.071249	  0.194036	  0.076453	
22.122	  0.069593	  0.185562	  0.076245	
22.1552	  0.067976	  0.179894	  0.076500	
22.1885	  0.066374	  0.177649	  0.076921	
22.2218	  0.064793	  0.178944	  0.077238	
22.255	  0.063393	  0.183325	  0.077304	
22.2883	  0.062397	  0.189754	  0.077106	
22.3216	  0.061833	  0.196818	  0.076724	
22.3548	  0.061399	  0.203208	  0.076274	
22.3881	  0.060653	  0.208202	  0.075839	
22.4214	  0.059400	  0.211825	  0.075413	
22.4546	  0.057883	  0.214543	  0.074941	
22.4879	  0.056558	  0.216745	  0.074445	
22.5212	  0.055656	  0.218456	  0.074085	
22.5544	  0.054956	  0.219476	  0.074065	
22.5877	  0.054000	  0.219714	  0.074493	
22.621	  0.052525	  0.219303	  0.075343	
22.6542	  0.050705	  0.218398	  0.076495	
22.6875	  0.049002	  0.216980	  0.077746	
22.7208	  0.047798	  0.214969	  0.078800	
22.754	  0.047139	  0.212528	  0.079356	
22.7873	  0.046761	  0.210126	  0.079297	
22.8206	  0.046324	  0.208170	  0.078708	
22.8538	  0.045647	  0.206583	  0.077674	
22.8871	  0.044788	  0.204800	  0.076089	
22.9204	  0.043953	  0.202274	  0.073784	
22.9536	  0.043315	  0.198989	  0.070850	
22.9869	  0.042888	  0.195506	  0.067728	
23.0202	  0.042556	  0.192514	  0.064888	
23.0534	  0.042181	  0.190365	  0.062437	
23.0867	  0.041715	  0.188959	  0.060133	
